<svg xmlns="http://www.w3.org/2000/svg" width="91.2" height="91" viewBox="0 0 31.2 31">
  <path fill="#221A15" d="M26.3 4.1c6.3 5.8 6.7 15.6.9 21.9-5.8 6.3-15.6 6.7-21.9.9C-1 21.1-1.4 11.3 4.4 5S20-1.7 26.3 4.1zm-1.1.6c-6-5.2-15-4.6-20.3 1.4-5.2 6-4.6 15 1.4 20.3 6 5.2 15 4.6 20.3-1.4 5.2-6.1 4.6-15.1-1.4-20.3z" style="fill: rgb(34, 26, 21);"></path>
  <path fill="#221A15" d="M24.5 5.6C23.3 6.8 22 7.9 20.7 9c-.7.6-1.4 1.2-2 1.8-.7.6-1.1 1.1-2.1 1.3-.8.2-1.7.1-2.5-.4-.5-.3-1.6-1.3-2-1.7-1.3-1.1-2.6-2.3-3.9-3.4-.4-.3-.8-.6-1.1-.9L7 5.6l.1-.1c.1-.1.2-.1.2-.2.2-.2.4-.3.6-.4.6-.5 1.4-.9 2.1-1.3 1.6-.8 3.2-1.2 5-1.3 3.5-.2 6.9 1 9.5 3.3zM25.7 6.7c2.3 2.6 3.5 6.1 3.3 9.5-.1 1.8-.5 3.4-1.3 5-.4.8-.8 1.5-1.3 2.1-.1.2-.2.3-.4.5-.1.1-.1.2-.2.2l-.1.1s0 .1-.1 0l-.1-.1c-.3-.4-.6-.7-1-1.1-1.1-1.3-2.3-2.6-3.4-3.9-.4-.4-1.4-1.5-1.7-2-.4-.8-.5-1.6-.4-2.5.2-1 .7-1.4 1.3-2.1.6-.7 1.2-1.4 1.8-2 1.3-1.1 2.4-2.4 3.6-3.7zM7 25.4c1.3-1.1 2.6-2.3 3.9-3.4.7-.6 1.4-1.2 2-1.8.7-.6 1.1-1.1 2.1-1.3.8-.2 1.7-.1 2.5.4.5.3 1.6 1.3 2 1.7 1.3 1.1 2.6 2.3 3.9 3.4.4.3.7.6 1.1 1l.1.1-.1.1c-.1.1-.2.1-.2.2-.2.1-.3.3-.5.4-.7.5-1.4.9-2.1 1.3-1.6.8-3.2 1.2-5 1.3-3.7.1-7.1-1.1-9.7-3.4zM5.9 6.7C7 8 8.2 9.3 9.3 10.6c.6.7 1.2 1.4 1.8 2 .6.7 1.1 1.1 1.3 2.1.2.8.1 1.7-.4 2.5-.3.5-1.3 1.6-1.7 2-1.1 1.3-2.3 2.6-3.4 3.9-.3.4-.6.7-1 1.1l-.1.1-.1-.1c0-.2-.1-.2-.2-.3-.1-.2-.3-.3-.4-.5-.5-.7-.9-1.4-1.3-2.1-.8-1.6-1.2-3.2-1.3-5-.1-3.5 1.1-7 3.4-9.6z" style="fill: rgb(34, 26, 21);"></path>
</svg>