<?xml version="1.0" encoding="utf-8"?>
<!-- Generator: Adobe Illustrator 18.0.0, SVG Export Plug-In . SVG Version: 6.00 Build 0)  -->
<!DOCTYPE svg PUBLIC "-//W3C//DTD SVG 1.1//EN" "http://www.w3.org/Graphics/SVG/1.1/DTD/svg11.dtd">
<svg xmlns="http://www.w3.org/2000/svg" width="152" height="20" viewBox="0 0 152 31">
  <path fill="white" d="M102.9-.3h2v3.9h-2zM141.6 25.1h-7.4c-1.7 0-3.1-.6-4.3-1.8-1.2-1.2-1.8-2.7-1.8-4.3v-7.3c0-1.7.6-3.1 1.8-4.3 1.2-1.2 2.6-1.8 4.3-1.8h7.4c1.7 0 3.1.6 4.3 1.8 1.2 1.2 1.8 2.6 1.8 4.3V19c0 1.7-.6 3.1-1.8 4.3-1.2 1.2-2.6 1.8-4.3 1.8zm0-17.6H133.8c-.1 0-.3 0-.4.1-.1 0-.3.1-.4.1-.1 0-.2.1-.4.1-.1 0-.2.1-.3.2-.1.1-.2.1-.3.2l-.3.3-.3.3-.3.3c-.1.1-.2.2-.2.3-.1.1-.1.2-.2.3-.1.1-.1.2-.2.3 0 .1-.1.2-.1.4 0 .1-.1.2-.1.4 0 .1 0 .3-.1.4v8.1c0 .1 0 .3.1.4 0 .1.1.3.1.4 0 .1.1.2.1.4 0 .1.1.2.2.3.1.1.1.2.2.3.1.1.2.2.2.3l.3.3.3.3c.1.1.2.2.3.2.1.1.2.1.3.2.1.1.2.1.3.2.1 0 .2.1.4.1.1 0 .3.1.4.1.1 0 .3 0 .4.1H142c.1 0 .3 0 .4-.1.1 0 .3-.1.4-.1.1 0 .2-.1.4-.1.1 0 .2-.1.3-.2.1-.1.2-.1.3-.2.1-.1.2-.2.3-.2l.3-.3.3-.3c.1-.1.2-.2.2-.3.1-.1.1-.2.2-.3.1-.1.1-.2.2-.3 0-.1.1-.2.1-.4 0-.1.1-.3.1-.4 0-.1 0-.3.1-.4v-.4-7.3-.4c0-.1 0-.3-.1-.4 0-.1-.1-.3-.1-.4 0-.1-.1-.2-.1-.4 0-.1-.1-.2-.2-.3-.1-.1-.1-.2-.2-.3-.1-.1-.2-.2-.2-.3l-.3-.3-.3-.3-.3-.3c-.1-.1-.2-.1-.3-.2-.1-.1-.2-.1-.3-.2-.1 0-.2-.1-.4-.1-.1 0-.3-.1-.4-.1-.1 0-.3 0-.4-.1-.1.1-.2 0-.4 0zM124.5 7.4c1.2 1.2 1.8 2.6 1.8 4.3v13.4h-2V11.7v-.4c0-.1 0-.3-.1-.4 0-.1-.1-.3-.1-.4 0-.1-.1-.2-.1-.4 0-.1-.1-.1-.1-.2s-.1-.1-.1-.2-.1-.1-.1-.2-.1-.1-.1-.2l-.3-.3c0-.1-.1-.1-.1-.2l-.2-.2-.2-.2c-.1-.1-.1-.1-.2-.1l-.3-.3c-.1-.1-.2-.1-.3-.2-.1-.1-.2-.1-.3-.2-.1 0-.2-.1-.4-.1-.1 0-.2-.1-.4-.1-.1 0-.3 0-.4-.1h-11.8v17.5h-2V5.3h13.4c1.8.3 3.2.9 4.4 2.1zM60.2 25.1V-.2h2v5.8h11.4c1.7 0 3.1.6 4.3 1.8 1.2 1.2 1.8 2.6 1.8 4.3v13.4h-2V11.7v-.4c0-.1 0-.3-.1-.4 0-.1-.1-.3-.1-.4 0-.1-.1-.2-.1-.4 0-.1-.1-.1-.1-.2s-.1-.1-.1-.2-.1-.1-.1-.2-.1-.1-.1-.2l-.3-.3c0-.1-.1-.1-.1-.2l-.2-.2-.2-.2c-.1-.1-.1-.1-.2-.1l-.3-.3c-.1-.1-.2-.1-.3-.2-.1-.1-.2-.1-.3-.2-.1 0-.2-.1-.4-.1-.1 0-.2-.1-.4-.1-.1 0-.3 0-.4-.1H62.1v17.5c-.6.3-1.3.3-1.9.3zM26.1 3.9c6.3 5.8 6.7 15.7.9 22-5.8 6.3-15.7 6.7-22 .9-6.3-5.8-6.7-15.7-.9-22s15.7-6.8 22-.9zm-1.1.5C19-.8 9.9-.2 4.7 5.9-.5 11.9.1 21 6.1 26.3c6 5.2 15.1 4.6 20.4-1.4C31.7 18.8 31 9.7 25 4.4z" style="fill: rgb(255, 255, 255);"></path>
  <path fill="white" d="M24.4 5.4c-1.3 1.1-2.6 2.3-3.9 3.4-.7.6-1.4 1.2-2 1.8-.7.6-1.1 1.1-2.1 1.3-.8.2-1.7.1-2.5-.4-.5-.3-1.6-1.3-2-1.7C10.6 8.7 9.3 7.5 8 6.4c-.4-.3-.7-.6-1.1-1l-.1-.1.1-.1c.1 0 .2-.1.2-.1.2-.1.3-.3.5-.4.7-.5 1.4-1 2.2-1.3 1.6-.8 3.2-1.2 5-1.3 3.5-.2 7 1 9.6 3.3zM25.5 6.5c2.3 2.6 3.5 6.1 3.3 9.6-.1 1.8-.5 3.4-1.3 5-.4.8-.8 1.5-1.3 2.2-.1.2-.2.3-.4.5-.1.1-.1.2-.2.2l-.1.1s0 .1-.1 0l-.1-.1c-.3-.4-.6-.7-1-1.1-1.1-1.3-2.3-2.6-3.4-3.9-.4-.4-1.4-1.5-1.7-2-.4-.8-.6-1.6-.4-2.5.2-1 .7-1.4 1.3-2.1.6-.7 1.2-1.4 1.8-2 1.3-1.3 2.5-2.6 3.6-3.9zM6.7 25.3c1.3-1.1 2.6-2.3 3.9-3.4.7-.6 1.4-1.2 2-1.8.7-.6 1.1-1.1 2.1-1.3.8-.2 1.7-.1 2.5.4.5.3 1.6 1.3 2 1.7 1.3 1.1 2.6 2.3 3.9 3.4.4.3.7.6 1.1 1l.1.1-.1.1c-.1.1-.2.1-.2.2-.2.1-.3.3-.5.4-.7.5-1.4.9-2.2 1.3-1.6.8-3.2 1.2-5 1.3-3.5.1-6.9-1.1-9.6-3.4zM5.6 6.5C6.7 7.8 7.9 9.1 9 10.4c.6.7 1.2 1.4 1.8 2 .6.7 1.1 1.1 1.3 2.1.2.8.1 1.7-.4 2.5-.3.5-1.3 1.6-1.7 2-1 1.4-2.2 2.7-3.3 4-.3.4-.6.7-1 1.1l-.1.1-.1-.1c-.1-.1-.1-.2-.2-.2-.1-.2-.3-.3-.4-.5-.5-.7-.9-1.4-1.3-2.2-.8-1.6-1.2-3.2-1.3-5-.2-3.6 1-7.1 3.3-9.7zM99.1 7.5H88.3c-.8 0-1.5 0-2.2.3-.8.3-1.5.9-1.9 1.6-.5.8-.6 1.5-.6 2.4V19c0 .7.1 1.2.4 1.8.6 1.2 1.8 2.1 3.2 2.2h6.5c.1 0 0 .1 0 .1V25h-4.9c-.7 0-1.3 0-2-.1-1.7-.2-3.2-1.2-4.2-2.6-.5-.7-.8-1.5-.9-2.3-.1-.6-.1-1.2-.1-1.9V12v-.7c.1-1.4.6-2.7 1.5-3.7s2.1-1.7 3.5-2c.6-.1 1.2-.1 1.8-.1H101V24.9h-1.8-.1-.1v-.3-.5V23c.1-5.1.1-10.3.1-15.5zM52.2 7.5h.4c.1 0 .3 0 .4.1.1 0 .3.1.4.1.1 0 .2.1.4.1.1 0 .2.1.3.2.1.1.2.1.3.2l.3.3.3.3.3.3c.1.1.2.2.2.3.1.1.1.2.2.3.1.1.1.2.2.3 0 .1.1.2.1.4 0 .1.1.2.1.4 0 .1 0 .3.1.4v8.1c0 .1 0 .3-.1.4 0 .1-.1.3-.1.4 0 .1-.1.2-.1.4 0 .1-.1.2-.2.3-.1.1-.1.2-.2.3-.1.1-.2.2-.2.3l-.3.3-.3.3c-.1.1-.2.2-.3.2-.1.1-.2.1-.3.2-.1.1-.2.1-.3.2-.1 0-.2.1-.4.1-.2.3-.3.3-.4.3-.1 0-.3 0-.4.1h-6.5v2h6.1c1.7 0 3.1-.6 4.3-1.8 1.2-1.2 1.8-2.7 1.8-4.3v-7.3c0-1.7-.6-3.1-1.8-4.3-1.2-1.2-2.6-1.8-4.3-1.8H38.8v25.3h2V7.6c3.7-.1 7.6-.1 11.4-.1zM102.9 5.6h2v19.5h-2zM149.8 5.2c-1.2 0-2.1-1-2.1-2.1 0-1.2 1-2.1 2.1-2.1 1.2 0 2.1 1 2.1 2.1.1 1.1-.9 2.1-2.1 2.1zm0-4c-1 0-1.9.9-1.9 1.9 0 1 .9 1.9 1.9 1.9 1 0 1.9-.9 1.9-1.9 0-1.1-.8-1.9-1.9-1.9z" style="fill: rgb(255, 255, 255);"></path>
  <path fill="white" d="M149.1 3.2v1.2h-.2V1.8h1c.3 0 .5.1.7.2.2.1.2.3.2.5s0 .3-.1.4c-.1.1-.2.2-.3.2.1 0 .1.1.2.1 0 0 .1.1.1.2v1h-.3s0-.1-.1-.2V4v-.2-.2c0-.1 0-.1-.1-.2l-.1-.1h-1zm.8-.2h.3c.1 0 .1 0 .2-.1.1 0 .1-.1.1-.2v-.2c0-.1 0-.2-.1-.2 0-.1-.1-.1-.1-.1-.1 0-.1-.1-.2-.1h-1v1h.8z" style="fill: rgb(255,255,255);"></path>
</svg>